<svg width="32" height="32" viewBox="0 0 32 32" fill="none" xmlns="http://www.w3.org/2000/svg">
<path d="M26.9375 27.8946H26.5225C26.2097 27.8934 25.9067 27.7854 25.6639 27.5882C25.421 27.3911 25.2528 27.1168 25.1874 26.811L23.5735 19.1446H24.2031C24.4207 19.1446 24.6293 19.0581 24.7832 18.9043C24.937 18.7505 25.0234 18.5418 25.0234 18.3242C25.0234 18.1067 24.937 17.898 24.7832 17.7442C24.6293 17.5904 24.4207 17.5039 24.2031 17.5039H22.5628C22.5601 17.5039 22.5574 17.5039 22.5548 17.5039H7.79688C7.57931 17.5039 7.37066 17.5904 7.21683 17.7442C7.06299 17.898 6.97656 18.1067 6.97656 18.3242C6.97656 18.5418 7.06299 18.7505 7.21683 18.9043C7.37066 19.0581 7.57931 19.1446 7.79688 19.1446H8.42653L6.81208 26.8112C6.74656 27.117 6.57841 27.3913 6.33554 27.5883C6.09267 27.7854 5.78969 27.8934 5.47693 27.8945H5.0625C4.84494 27.8945 4.63629 27.981 4.48245 28.1348C4.32861 28.2887 4.24219 28.4973 4.24219 28.7149C4.24219 28.9324 4.32861 29.1411 4.48245 29.2949C4.63629 29.4487 4.84494 29.5352 5.0625 29.5352H5.47693C6.16579 29.5327 6.83308 29.2947 7.36798 28.8606C7.90288 28.4266 8.27321 27.8226 8.41745 27.149L10.1029 19.1446H21.8971L23.582 27.1488C23.7262 27.8224 24.0965 28.4264 24.6314 28.8606C25.1663 29.2947 25.8336 29.5327 26.5225 29.5352H26.9375C27.1551 29.5352 27.3637 29.4488 27.5175 29.2949C27.6714 29.1411 27.7578 28.9324 27.7578 28.7149C27.7578 28.4973 27.6714 28.2887 27.5175 28.1348C27.3637 27.981 27.1551 27.8946 26.9375 27.8946Z" fill="#E2BC85"/>
<path d="M13.1282 4.92592H18.8703L19.1211 3.42121C19.1407 3.30355 19.1344 3.18304 19.1027 3.06806C19.071 2.95307 19.0146 2.84636 18.9375 2.75535C18.8604 2.66434 18.7645 2.59121 18.6562 2.54104C18.548 2.49087 18.4302 2.46487 18.3109 2.46484H13.6876C13.5683 2.46483 13.4504 2.4908 13.3422 2.54096C13.2339 2.59112 13.1379 2.66425 13.0608 2.75528C12.9837 2.84631 12.9274 2.95304 12.8957 3.06806C12.864 3.18307 12.8578 3.30361 12.8774 3.42127L13.1282 4.92592Z" fill="#E2BC85"/>
<path d="M15.1787 26.4858V28.7149C15.1787 28.9325 15.2651 29.1411 15.419 29.295C15.5728 29.4488 15.7815 29.5352 15.999 29.5352C16.2166 29.5352 16.4252 29.4488 16.5791 29.295C16.7329 29.1411 16.8193 28.9325 16.8193 28.7149V26.4858C16.5494 26.5127 16.2759 26.5274 15.999 26.5274C15.7221 26.5274 15.4487 26.5127 15.1787 26.4858Z" fill="#E2BC85"/>
<path d="M18.4607 12.2431V8.20703H19.2807C19.4983 8.20703 19.7069 8.12061 19.8608 7.96677C20.0146 7.81293 20.101 7.60428 20.101 7.38672C20.101 7.16916 20.0146 6.96051 19.8608 6.80667C19.7069 6.65283 19.4983 6.56641 19.2807 6.56641H12.7182C12.5007 6.56641 12.292 6.65283 12.1382 6.80667C11.9843 6.96051 11.8979 7.16916 11.8979 7.38672C11.8979 7.60428 11.9843 7.81293 12.1382 7.96677C12.292 8.12061 12.5007 8.20703 12.7182 8.20703H13.5388V12.2431C12.7238 12.574 11.9833 13.0649 11.3611 13.6867C10.7389 14.3084 10.2476 15.0485 9.91602 15.8633H22.0834C21.7519 15.0485 21.2605 14.3085 20.6383 13.6867C20.0161 13.0649 19.2757 12.5741 18.4607 12.2431Z" fill="#E2BC85"/>
<path d="M11.4335 20.7852L11.0469 22.6211C11.6614 23.3321 12.4218 23.9024 13.2764 24.2934C14.131 24.6843 15.0597 24.8866 15.9995 24.8866C16.9392 24.8866 17.868 24.6842 18.7226 24.2933C19.5771 23.9023 20.3375 23.332 20.952 22.621L20.5654 20.7852H11.4335Z" fill="#E2BC85"/>
</svg>
